<svg width="1024" height="1024" viewBox="0 0 1024 1024" fill="none" xmlns="http://www.w3.org/2000/svg">
<rect x="0.5" y="0.5" width="1023" height="1023" rx="203.5" stroke="#4077BA"/>
<rect width="1024" height="1024" rx="204" fill="url(#paint0_linear_24_6)"/>
<path fill-rule="evenodd" clip-rule="evenodd" d="M439.858 155.994C466.941 143.915 497.83 141.707 526.536 149.778C555.345 157.879 580.865 177.479 596.377 201.583V201.583C597.445 203.242 599.437 205.398 601.371 205.009C621.358 200.981 642.116 202.008 661.696 208.079C684.9 215.274 705.384 229.224 720.459 248.125C720.823 248.581 721.183 249.039 721.539 249.5C742.984 277.208 775.383 302.461 809.635 309.84V309.84C831.447 314.539 852.12 323.488 870.473 336.176C888.827 348.864 904.501 365.043 916.602 383.789C928.703 402.535 936.993 423.481 940.999 445.431C945.004 467.381 944.648 489.905 939.949 511.717C935.25 533.529 926.301 554.202 913.613 572.555V572.555C895.507 598.745 883.329 630.153 884.55 661.969C885.773 693.801 881.82 725.868 872.787 755.423C858.764 801.303 833.52 837.787 802.049 857.659C770.577 877.531 735.169 879.344 702.83 862.739C680.372 851.207 660.53 831.376 645.087 805.486C632.76 784.821 612.13 769.958 590.697 759.022V759.022C575.816 751.429 562.731 740.384 552.409 726.703C548.924 722.084 545.785 717.205 543.011 712.111C542.833 711.785 542.456 711.63 542.089 711.684V711.684C506.309 716.952 468.603 718.008 431.904 714.783C395.217 711.558 360.364 704.126 330.099 692.971V692.971C328.742 692.471 327.227 692.009 325.885 692.547C322.486 693.909 319.04 695.172 315.55 696.332C290.328 704.714 263.462 707.535 236.954 704.591C210.447 701.646 184.955 693.01 162.388 679.304C139.821 665.597 120.75 647.166 106.634 625.361C92.5155 603.555 83.7257 578.95 80.951 553.387C78.1763 527.823 81.4929 501.998 90.6402 477.854C99.7867 453.712 114.516 431.899 133.691 414.032C143.066 405.296 153.386 397.613 164.446 391.097C183.045 380.139 194.188 358.583 194.318 336.996V336.996C194.495 307.576 204.31 279.035 222.239 255.889C240.171 232.74 265.204 216.3 293.4 209.209C321.597 202.116 351.314 204.788 377.84 216.791V216.791C378.449 217.066 379.238 216.875 379.501 216.261C379.627 215.965 379.755 215.67 379.884 215.376C391.349 189.209 412.767 168.076 439.858 155.994ZM375.148 228.365C375.443 227.361 374.671 226.333 373.718 225.901V225.901C349.245 214.828 321.841 212.366 295.839 218.907C269.837 225.447 246.72 240.615 230.145 262.013C213.57 283.411 204.482 309.817 204.318 337.056C204.154 364.295 212.924 390.813 229.241 412.415C230.905 414.619 230.468 417.754 228.264 419.419C226.061 421.083 222.925 420.646 221.261 418.442V418.442C208.256 401.224 186.167 389.609 167.714 400.793C157.956 406.708 148.834 413.59 140.508 421.348C122.435 438.189 108.584 458.718 99.9916 481.397C91.3993 504.076 88.2887 528.318 90.8926 552.308C93.4966 576.298 101.748 599.414 115.028 619.927C128.308 640.439 146.274 657.816 167.58 670.757C188.886 683.697 212.98 691.866 238.058 694.652C263.137 697.437 288.55 694.767 312.396 686.842C336.242 678.917 357.902 665.941 375.754 648.886C377.751 646.979 380.916 647.051 382.823 649.048C384.731 651.045 384.659 654.21 382.662 656.117V656.117C368.632 669.52 371.551 695.487 390.621 699.066C404.241 701.622 418.351 703.553 432.779 704.821C460.046 707.218 487.879 707.199 515.006 704.8C526.706 703.766 533.568 691.451 531.061 679.976V679.976C530.472 677.278 532.181 674.613 534.879 674.024C537.576 673.435 540.241 675.144 540.83 677.842C544.259 693.537 550.956 708.174 560.392 720.68C569.825 733.184 581.746 743.229 595.242 750.115C608.735 756.999 623.479 760.563 638.392 760.571C653.305 760.579 668.053 757.032 681.552 750.162C684.013 748.91 687.024 749.89 688.276 752.351C689.528 754.812 688.548 757.822 686.087 759.075V759.075C665.156 769.726 648.487 794.374 662.238 813.412C675.3 831.495 690.715 845.277 707.398 853.843C736.498 868.785 768.142 867.242 796.71 849.203C825.629 830.943 849.695 796.765 863.224 752.5C875.936 710.906 878.216 664.01 869.728 620.235C869.4 618.542 867.448 617.749 865.999 618.684V618.684C847.253 630.785 826.307 639.075 804.358 643.081C801.641 643.576 799.037 641.776 798.541 639.059C798.045 636.343 799.846 633.739 802.562 633.243C823.22 629.473 842.933 621.671 860.576 610.282C878.219 598.894 893.446 584.142 905.387 566.868C917.329 549.595 925.751 530.139 930.173 509.611C934.596 489.083 934.931 467.884 931.161 447.226C927.391 426.568 919.589 406.855 908.2 389.213C896.812 371.57 882.06 356.343 864.786 344.402C847.513 332.46 828.057 324.038 807.529 319.615C787.001 315.193 765.802 314.857 745.144 318.628V318.628C744.227 318.795 743.295 319 742.391 319.228C742.106 319.301 741.809 319.348 741.505 319.369C738.75 319.559 736.363 317.479 736.173 314.724C734.659 292.722 726.458 271.684 712.641 254.36C698.825 237.037 680.037 224.235 658.735 217.63C637.433 211.025 614.609 210.924 593.247 217.34C571.886 223.756 552.983 236.39 539.009 253.59C537.268 255.733 534.119 256.059 531.976 254.318C529.832 252.576 529.506 249.427 531.248 247.284C545.866 229.291 565.415 215.893 587.509 208.66C588.156 208.449 588.337 207.567 587.968 206.995V206.995C573.73 184.87 550.202 166.82 523.829 159.405C497.355 151.961 468.866 154.006 443.931 165.127C419 176.246 399.46 195.615 389.044 219.389C378.631 243.153 378.051 269.672 387.41 293.809C388.408 296.384 387.13 299.28 384.556 300.278C381.981 301.277 379.085 299.999 378.086 297.424C369.447 275.143 368.494 251.001 375.148 228.365Z" fill="#104547"/>
<path d="M373.718 225.901V225.901C374.671 226.333 375.443 227.361 375.148 228.365C368.494 251.001 369.447 275.143 378.086 297.424C379.085 299.999 381.981 301.277 384.556 300.278C387.13 299.28 388.408 296.384 387.41 293.809C378.051 269.672 378.631 243.153 389.044 219.389C399.46 195.615 419 176.246 443.931 165.127C468.866 154.006 497.355 151.961 523.829 159.405C550.202 166.82 573.73 184.87 587.968 206.995V206.995C588.337 207.567 588.156 208.449 587.509 208.66C565.415 215.893 545.866 229.291 531.248 247.284C529.506 249.427 529.832 252.576 531.976 254.318C534.119 256.059 537.268 255.733 539.009 253.59C552.983 236.39 571.886 223.756 593.247 217.34C614.609 210.924 637.433 211.025 658.735 217.63C680.037 224.235 698.825 237.037 712.641 254.36C726.458 271.684 734.659 292.722 736.173 314.724C736.363 317.479 738.75 319.559 741.505 319.369C741.809 319.348 742.106 319.301 742.391 319.228C743.295 319 744.227 318.795 745.144 318.628V318.628C765.802 314.857 787.001 315.193 807.529 319.615C828.057 324.038 847.513 332.46 864.786 344.402C882.06 356.343 896.812 371.57 908.2 389.213C919.589 406.855 927.391 426.568 931.161 447.226C934.931 467.884 934.596 489.083 930.173 509.611C925.751 530.139 917.329 549.595 905.387 566.868C893.446 584.142 878.219 598.894 860.576 610.282C842.933 621.671 823.22 629.473 802.562 633.243C799.846 633.739 798.045 636.343 798.541 639.059C799.037 641.776 801.641 643.576 804.358 643.081C826.307 639.075 847.253 630.785 865.999 618.684V618.684C867.448 617.749 869.4 618.542 869.728 620.235C878.216 664.01 875.936 710.906 863.224 752.5C849.695 796.765 825.629 830.943 796.71 849.203C768.142 867.242 736.498 868.785 707.398 853.843C690.715 845.277 675.3 831.495 662.238 813.412C648.487 794.374 665.156 769.726 686.087 759.075V759.075C688.548 757.822 689.528 754.812 688.276 752.351C687.024 749.89 684.013 748.91 681.552 750.162C668.053 757.032 653.305 760.579 638.392 760.571C623.479 760.563 608.735 756.999 595.242 750.115C581.746 743.229 569.825 733.184 560.392 720.68C550.956 708.174 544.259 693.537 540.83 677.842C540.241 675.144 537.576 673.435 534.879 674.024C532.181 674.613 530.472 677.278 531.061 679.976V679.976C533.568 691.451 526.706 703.766 515.006 704.8C487.879 707.199 460.046 707.218 432.779 704.821C418.351 703.553 404.241 701.622 390.621 699.066C371.551 695.487 368.632 669.52 382.662 656.117V656.117C384.659 654.21 384.731 651.045 382.823 649.048C380.916 647.051 377.751 646.979 375.754 648.886C357.902 665.941 336.242 678.917 312.396 686.842C288.55 694.767 263.137 697.437 238.058 694.652C212.98 691.866 188.886 683.697 167.58 670.757C146.274 657.816 128.308 640.439 115.028 619.927C101.748 599.414 93.4966 576.298 90.8926 552.308C88.2887 528.318 91.3993 504.076 99.9916 481.397C108.584 458.718 122.435 438.189 140.508 421.348C148.834 413.59 157.956 406.708 167.714 400.793C186.167 389.609 208.256 401.224 221.261 418.442V418.442C222.925 420.646 226.061 421.083 228.264 419.419C230.468 417.754 230.905 414.619 229.241 412.415C212.924 390.813 204.154 364.295 204.318 337.056C204.482 309.817 213.57 283.411 230.145 262.013C246.72 240.615 269.837 225.447 295.839 218.907C321.841 212.366 349.245 214.828 373.718 225.901Z" fill="url(#paint1_linear_24_6)" fill-opacity="0.82"/>
<ellipse cx="361.55" cy="437.58" rx="38.55" ry="96.58" fill="white"/>
<path fill-rule="evenodd" clip-rule="evenodd" d="M400.709 437.581C400.709 490.921 383.313 534.161 361.854 534.161C340.396 534.161 323 490.921 323 437.581C323 384.241 340.396 341 361.854 341C383.313 341 400.709 384.241 400.709 437.581ZM385.167 405.389C385.167 417.651 375.723 427.592 364.075 427.592C352.426 427.592 342.982 417.651 342.982 405.389C342.982 393.127 352.426 383.187 364.075 383.187C375.723 383.187 385.167 393.127 385.167 405.389ZM370.735 496.418C373.801 496.418 376.286 493.933 376.286 490.868C376.286 487.802 373.801 485.317 370.735 485.317C367.67 485.317 365.185 487.802 365.185 490.868C365.185 493.933 367.67 496.418 370.735 496.418Z" fill="#020202"/>
<ellipse cx="643.55" cy="437.58" rx="38.55" ry="96.58" fill="white"/>
<path fill-rule="evenodd" clip-rule="evenodd" d="M682.68 437.581C682.68 490.921 665.284 534.161 643.825 534.161C622.367 534.161 604.971 490.921 604.971 437.581C604.971 384.241 622.367 341 643.825 341C665.284 341 682.68 384.241 682.68 437.581ZM667.138 405.389C667.138 417.651 657.695 427.592 646.046 427.592C634.397 427.592 624.953 417.651 624.953 405.389C624.953 393.127 634.397 383.187 646.046 383.187C657.695 383.187 667.138 393.127 667.138 405.389ZM652.706 496.418C655.772 496.418 658.257 493.933 658.257 490.868C658.257 487.802 655.772 485.317 652.706 485.317C649.641 485.317 647.156 487.802 647.156 490.868C647.156 493.933 649.641 496.418 652.706 496.418Z" fill="#020202"/>
<path d="M672.394 575.364C670.468 577.823 665.399 581.447 655.541 585.32C646.052 589.048 633.364 592.537 617.781 595.521C586.637 601.484 546.912 604.866 505.482 604.996C464.057 605.126 423.906 601.996 391.992 596.223C376.026 593.335 362.852 589.916 352.819 586.218C342.474 582.405 336.616 578.701 334.064 575.904" stroke="#020202" stroke-width="20" stroke-linecap="round"/>
<path fill-rule="evenodd" clip-rule="evenodd" d="M538.696 668.072C544.092 666.893 549.421 670.312 550.6 675.707C553.727 690.022 559.826 703.326 568.375 714.657C576.92 725.984 587.676 735.028 599.787 741.207C611.891 747.383 625.082 750.563 638.397 750.571C651.713 750.578 664.907 747.412 677.017 741.25C681.939 738.745 687.96 740.705 690.465 745.627C692.969 750.549 691.01 756.57 686.087 759.075C671.199 766.651 654.897 770.58 638.387 770.571C621.876 770.562 605.578 766.615 590.697 759.022C575.816 751.429 562.731 740.384 552.409 726.702C542.087 713.021 534.791 697.052 531.061 679.976C529.882 674.58 533.301 669.251 538.696 668.072Z" fill="#020202"/>
<path fill-rule="evenodd" clip-rule="evenodd" d="M867.404 608.639C872.819 607.551 878.09 611.058 879.178 616.473C888.767 664.178 885.946 715.409 871.263 760.236C856.58 805.065 831.08 840.295 799.708 859.099C768.334 877.905 733.321 878.945 701.455 862.02C669.59 845.096 643.138 811.411 627.23 767.492C625.349 762.299 628.034 756.565 633.227 754.684C638.419 752.803 644.154 755.488 646.034 760.68C660.765 801.347 684.511 830.375 710.836 844.357C736.409 857.939 763.964 857.207 789.426 841.945C815.594 826.259 838.629 795.618 852.257 754.011C865.831 712.57 868.501 664.847 859.571 620.414C858.482 614.999 861.989 609.728 867.404 608.639Z" fill="#020202"/>
<path fill-rule="evenodd" clip-rule="evenodd" d="M320.716 689.513C322.626 684.331 328.375 681.678 333.557 683.588C362.874 694.393 396.842 701.662 432.779 704.821C468.717 707.98 505.639 706.942 540.632 701.791C546.096 700.986 551.178 704.763 551.982 710.227C552.786 715.691 549.009 720.773 543.545 721.577C506.978 726.961 468.489 728.037 431.028 724.744C393.591 721.453 357.853 713.858 326.641 702.354C321.459 700.445 318.806 694.695 320.716 689.513Z" fill="#020202"/>
<path fill-rule="evenodd" clip-rule="evenodd" d="M207.409 372.509C209.19 377.737 206.396 383.419 201.168 385.199C177.521 393.255 156.074 406.288 138.414 423.334C120.755 440.38 107.335 461.003 99.1488 483.675C90.9626 506.347 88.2198 530.487 91.1232 554.309C94.0267 578.131 102.502 601.024 115.922 621.293C129.342 641.561 147.362 658.687 168.649 671.401C189.936 684.115 213.945 692.093 238.896 694.743C263.848 697.393 289.104 694.647 312.794 686.709C336.484 678.771 358.002 665.845 375.754 648.886C379.748 645.071 386.078 645.216 389.893 649.21C393.708 653.203 393.563 659.533 389.569 663.348C369.653 682.374 345.575 696.818 319.148 705.673C292.723 714.527 264.579 717.583 236.784 714.631C208.989 711.679 182.197 702.789 158.394 688.572C134.588 674.353 114.354 655.152 99.2459 632.334C84.1354 609.511 74.5542 583.673 71.2702 556.729C67.9859 529.783 71.0923 502.488 80.3375 476.883C89.5813 451.281 104.707 428.074 124.524 408.944C144.339 389.818 168.339 375.254 194.719 366.268C199.947 364.487 205.628 367.281 207.409 372.509Z" fill="#020202"/>
<path fill-rule="evenodd" clip-rule="evenodd" d="M290.96 199.511C321.353 191.866 353.382 194.748 381.963 207.68C386.994 209.957 389.228 215.882 386.951 220.913C384.674 225.945 378.749 228.178 373.718 225.901C349.245 214.828 321.841 212.366 295.839 218.906C269.837 225.447 246.72 240.615 230.145 262.013C213.57 283.411 204.482 309.817 204.318 337.056C204.154 364.295 212.924 390.813 229.241 412.415C232.569 416.822 231.695 423.093 227.288 426.422C222.881 429.751 216.61 428.876 213.282 424.469C194.3 399.339 184.128 368.537 184.318 336.936C184.508 305.334 195.05 274.66 214.334 249.765C233.622 224.865 260.572 207.154 290.96 199.511Z" fill="#020202"/>
<path fill-rule="evenodd" clip-rule="evenodd" d="M437.821 151.428C465.978 138.87 498.067 136.58 527.889 144.965C557.916 153.408 584.432 173.783 600.582 198.877C603.571 203.521 602.229 209.709 597.585 212.698C592.94 215.687 586.753 214.345 583.764 209.701C570.162 188.566 547.631 171.291 522.475 164.218C497.118 157.088 469.828 159.051 445.967 169.693C422.116 180.331 403.516 198.818 393.623 221.395C383.74 243.951 383.192 269.1 392.072 292.001C394.068 297.151 391.513 302.944 386.363 304.94C381.214 306.937 375.421 304.381 373.425 299.232C362.629 271.39 363.305 240.757 375.305 213.369C387.294 186.006 409.651 163.991 437.821 151.428Z" fill="#020202"/>
<path fill-rule="evenodd" clip-rule="evenodd" d="M587.494 198.185C612.666 190.625 639.556 190.744 664.658 198.528C689.762 206.312 711.944 221.41 728.277 241.89C744.613 262.372 754.332 287.277 756.126 313.351C756.505 318.861 752.346 323.635 746.836 324.014C741.326 324.393 736.552 320.234 736.173 314.724C734.659 292.722 726.458 271.684 712.641 254.36C698.825 237.037 680.037 224.235 658.735 217.63C637.433 211.025 614.609 210.924 593.247 217.34C571.886 223.755 552.983 236.39 539.009 253.59C535.527 257.876 529.229 258.528 524.942 255.046C520.656 251.563 520.004 245.265 523.486 240.979C540.004 220.646 562.321 205.746 587.494 198.185Z" fill="#020202"/>
<path fill-rule="evenodd" clip-rule="evenodd" d="M747.243 298.008C770.609 294.514 794.434 295.656 817.358 301.369C840.283 307.082 861.857 317.254 880.85 331.305C899.843 345.357 915.883 363.011 928.053 383.261C940.223 403.511 948.286 425.959 951.78 449.325C955.275 472.691 954.133 496.516 948.42 519.44C942.707 542.365 932.534 563.939 918.483 582.932C904.432 601.925 886.778 617.965 866.528 630.135C846.278 642.305 823.829 650.368 800.464 653.862C795.002 654.679 789.911 650.914 789.095 645.452C788.278 639.989 792.043 634.899 797.505 634.082C818.274 630.976 838.227 623.81 856.225 612.993C874.224 602.176 889.916 587.919 902.405 571.038C914.894 554.156 923.935 534.98 929.014 514.604C934.092 494.228 935.107 473.051 932 452.283C928.894 431.515 921.728 411.562 910.911 393.563C900.094 375.565 885.837 359.873 868.956 347.384C852.074 334.895 832.898 325.853 812.522 320.775C792.146 315.697 770.969 314.682 750.201 317.788C744.739 318.605 739.649 314.839 738.832 309.377C738.015 303.915 741.781 298.825 747.243 298.008Z" fill="#020202"/>
<defs>
<linearGradient id="paint0_linear_24_6" x1="512" y1="0" x2="512" y2="1024" gradientUnits="userSpaceOnUse">
<stop stop-color="#C7EDE4"/>
<stop offset="1" stop-color="#5386E4"/>
</linearGradient>
<linearGradient id="paint1_linear_24_6" x1="511.88" y1="145" x2="511.88" y2="874" gradientUnits="userSpaceOnUse">
<stop stop-color="#FFD4E4"/>
<stop offset="1" stop-color="#D5708F"/>
</linearGradient>
</defs>
</svg>
